<svg width="48" height="46" viewBox="0 0 48 46" fill="none" xmlns="http://www.w3.org/2000/svg">
<path fill-rule="evenodd" clip-rule="evenodd" d="M35.0385 0.789168C36.3519 -0.212728 38.187 -0.159897 39.4406 0.915904L41.2793 2.49387C42.0542 3.1588 42.5 4.12891 42.5 5.14992V19C42.5 19.8284 41.8284 20.5 41 20.5C40.1716 20.5 39.5 19.8284 39.5 19V5.14992C39.5 5.00406 39.4363 4.86547 39.3256 4.77048L37.4869 3.19251C37.3078 3.03883 37.0456 3.03128 36.858 3.17441L33.9098 5.42339C33.2511 5.92583 32.3098 5.79919 31.8074 5.14052C31.3049 4.48186 31.4316 3.54059 32.0902 3.03815L35.0385 0.789168Z" fill="#FF498B"/>
<path fill-rule="evenodd" clip-rule="evenodd" d="M44 22H4C3.44772 22 3 22.4477 3 23V25C3 25.5523 3.44772 26 4 26H44C44.5523 26 45 25.5523 45 25V23C45 22.4477 44.5523 22 44 22ZM4 19C1.79086 19 0 20.7909 0 23V25C0 27.2091 1.79086 29 4 29H44C46.2091 29 48 27.2091 48 25V23C48 20.7909 46.2091 19 44 19H4Z" fill="#152C5B"/>
<path fill-rule="evenodd" clip-rule="evenodd" d="M41 29H7V37C7 38.1046 7.89543 39 9 39H39C40.1046 39 41 38.1046 41 37V29ZM4 26V37C4 39.7614 6.23858 42 9 42H39C41.7614 42 44 39.7614 44 37V26H4Z" fill="#152C5B"/>
<path fill-rule="evenodd" clip-rule="evenodd" d="M37 39.5C37.8284 39.5 38.5 40.1716 38.5 41V44C38.5 44.8284 37.8284 45.5 37 45.5C36.1716 45.5 35.5 44.8284 35.5 44V41C35.5 40.1716 36.1716 39.5 37 39.5Z" fill="#152C5B"/>
<path fill-rule="evenodd" clip-rule="evenodd" d="M11 39.5C11.8284 39.5 12.5 40.1716 12.5 41V44C12.5 44.8284 11.8284 45.5 11 45.5C10.1716 45.5 9.5 44.8284 9.5 44V41C9.5 40.1716 10.1716 39.5 11 39.5Z" fill="#152C5B"/>
</svg>
